<?xml version="1.0" standalone="no"?>
<svg width="400.000000pt" height="400.000000pt" viewBox="0 0 400.000000 400.000000" xmlns="http://www.w3.org/2000/svg" xmlns:xlink="http://www.w3.org/1999/xlink" preserveAspectRatio="xMidYMid meet">
  <g transform="translate(0.000000,400.000000) scale(0.033531,-0.027531)"
  fill="#00623B" stroke="none">
    <path d="M5657 12143 c-2 -2 -39 -6 -83 -9 -43 -3 -101 -7 -129 -10 -27 -2
-72 -6 -98 -8 -26 -3 -60 -7 -75 -10 -15 -4 -54 -9 -87 -12 -33 -3 -73 -8 -90
-10 -16 -3 -41 -7 -55 -9 -38 -6 -92 -15 -120 -21 -14 -3 -45 -7 -68 -10 -24
-2 -51 -8 -60 -13 -10 -5 -42 -12 -72 -16 -30 -4 -61 -12 -68 -17 -7 -6 -15
-8 -18 -5 -3 3 -62 -10 -132 -29 -70 -19 -137 -36 -149 -39 -49 -11 -284 -86
-376 -119 -1123 -408 -2074 -1112 -2787 -2064 -76 -101 -144 -196 -151 -210
-8 -15 -22 -36 -31 -46 -10 -11 -24 -32 -30 -48 -7 -15 -17 -28 -21 -28 -5 0
-6 -4 -3 -8 3 -5 -4 -18 -14 -30 -11 -12 -20 -26 -20 -32 0 -5 -4 -10 -8 -10
-4 0 -14 -16 -21 -36 -7 -19 -19 -38 -27 -41 -8 -3 -11 -9 -8 -14 3 -5 1 -9
-3 -9 -5 0 -14 -15 -21 -33 -7 -18 -20 -42 -30 -53 -10 -10 -19 -23 -20 -29
-1 -5 -34 -70 -73 -143 -291 -544 -512 -1197 -613 -1817 -41 -251 -76 -606
-76 -771 l0 -71 93 -7 c164 -12 370 22 541 91 50 19 210 95 356 169 146 73
308 148 360 168 189 69 402 97 581 76 57 -6 106 -14 108 -16 3 -3 -27 -66 -66
-142 -39 -75 -92 -188 -118 -249 l-48 -113 -81 6 c-106 8 -257 -16 -392 -61
-62 -21 -221 -94 -397 -183 -404 -205 -536 -246 -794 -247 l-141 0 5 -55 c15
-175 34 -355 39 -360 3 -3 64 -6 136 -8 219 -6 347 34 648 202 313 175 419
221 576 251 75 15 239 24 249 14 3 -4 -8 -60 -24 -125 -16 -65 -37 -155 -45
-199 -9 -44 -18 -89 -21 -101 -4 -18 -14 -22 -81 -27 -183 -16 -301 -63 -623
-251 -276 -161 -381 -196 -599 -203 l-143 -5 6 -42 c4 -22 28 -120 52 -216 25
-96 48 -185 50 -198 5 -20 11 -22 77 -22 158 1 291 52 533 208 268 172 425
232 611 232 l65 0 -7 -46 c-3 -26 -6 -116 -6 -200 l0 -154 -53 0 c-69 0 -194
-32 -276 -70 -35 -17 -145 -84 -245 -149 -100 -65 -196 -126 -215 -136 -72
-36 -179 -66 -258 -72 -46 -3 -83 -7 -83 -9 0 -8 101 -257 145 -356 54 -124
57 -126 162 -86 76 28 116 53 248 158 133 106 209 155 289 187 74 30 188 53
266 53 l59 0 6 -37 c13 -77 46 -259 51 -279 5 -20 0 -21 -83 -27 -161 -11
-258 -60 -460 -235 -122 -104 -191 -148 -261 -164 -29 -7 -52 -17 -52 -22 0
-23 243 -426 257 -426 12 0 75 52 178 144 200 180 298 239 447 270 42 9 79 16
81 16 2 0 -16 71 -40 157 -23 86 -43 164 -43 173 0 14 15 18 93 23 290 18 600
145 840 344 l58 48 3 110 c6 231 96 402 441 845 229 293 292 394 331 525 35
121 8 320 -91 665 -93 326 -118 476 -118 725 -1 182 12 281 58 452 93 343 313
701 566 919 71 61 144 111 123 83 -172 -226 -244 -340 -329 -514 -116 -235
-180 -471 -193 -703 -15 -266 14 -466 118 -807 117 -383 146 -542 137 -738 -9
-214 -80 -352 -377 -737 -278 -362 -364 -517 -390 -711 -28 -201 35 -426 215
-776 l73 -141 -62 -54 c-165 -144 -298 -235 -471 -321 -205 -102 -399 -157
-555 -157 -138 0 -169 24 -231 182 l-44 110 -60 -6 c-43 -4 -86 -19 -153 -51
-81 -40 -109 -62 -230 -178 -75 -73 -150 -142 -166 -155 l-28 -22 28 -37 c47
-63 186 -235 231 -285 l42 -47 98 111 c112 127 215 214 306 256 74 36 107 46
107 35 0 -4 29 -59 64 -121 54 -96 62 -114 48 -119 -127 -43 -217 -119 -375
-317 l-48 -60 98 -99 c54 -54 132 -130 174 -168 l77 -69 60 82 c66 92 169 200
233 244 36 25 42 26 50 12 5 -9 38 -53 74 -99 36 -45 65 -85 65 -88 0 -3 -19
-19 -41 -36 -55 -41 -229 -258 -229 -286 0 -24 416 -327 429 -313 4 5 15 43
25 84 32 143 127 312 333 593 179 245 256 373 310 516 53 141 67 307 38 445
-8 38 -13 71 -11 73 7 7 107 -205 127 -267 29 -95 36 -236 15 -340 -32 -160
-103 -310 -286 -605 -174 -280 -242 -424 -278 -592 l-20 -92 107 -59 c173 -96
239 -132 243 -132 3 0 5 24 7 53 3 77 44 239 92 363 24 60 124 271 224 469
100 198 195 400 213 448 118 327 76 522 -214 989 -144 231 -240 398 -280 485
-161 354 -152 628 33 935 62 103 110 170 287 398 146 189 215 294 267 404 59
127 72 197 66 351 -7 170 -32 273 -146 603 -126 364 -154 480 -171 703 -39
518 161 1045 537 1416 71 69 235 193 257 193 4 0 -29 -46 -72 -102 -289 -375
-416 -677 -453 -1078 -6 -69 -9 -177 -6 -240 12 -231 51 -388 192 -764 147
-394 194 -610 182 -836 -12 -231 -96 -400 -372 -750 -67 -85 -144 -186 -172
-225 -196 -274 -249 -491 -183 -748 41 -161 116 -307 335 -647 215 -333 295
-500 329 -680 48 -252 -10 -459 -256 -910 -255 -468 -333 -666 -356 -902 l-8
-87 76 -32 c41 -17 127 -51 190 -74 63 -24 123 -47 132 -50 16 -6 17 -1 11 58
-7 81 11 228 43 348 40 149 100 290 238 559 235 459 278 553 316 697 55 205
33 381 -76 611 -53 113 -81 161 -244 412 -222 340 -308 506 -356 685 -29 109
-27 335 4 435 51 161 120 273 347 565 160 206 214 284 265 385 79 156 106 290
97 473 -10 201 -63 389 -187 672 -154 351 -215 523 -245 700 -78 448 41 925
324 1305 104 140 344 370 386 370 28 0 26 -34 -5 -74 -270 -360 -380 -650
-411 -1075 -23 -325 28 -542 241 -1026 236 -536 290 -730 277 -995 -15 -283
-98 -461 -393 -838 -212 -271 -281 -405 -306 -592 -26 -198 38 -423 193 -678
23 -37 91 -140 151 -230 328 -490 403 -665 403 -937 0 -232 -40 -349 -298
-875 -244 -499 -300 -674 -297 -935 2 -175 -1 -164 40 -175 96 -25 164 -40
260 -59 58 -12 115 -23 127 -26 21 -5 22 -3 11 22 -18 46 -15 352 5 458 50
267 95 384 365 950 156 329 197 464 195 645 -2 121 -24 218 -79 346 -59 139
-110 224 -317 539 -214 323 -309 497 -353 650 -22 76 -27 110 -27 215 0 239
55 364 300 677 207 266 276 393 319 585 27 124 43 154 95 181 41 22 72 18 219
-25 267 -77 447 -77 720 4 220 65 264 40 309 -176 36 -171 114 -313 308 -559
173 -220 245 -342 285 -484 33 -118 31 -295 -6 -418 -44 -148 -142 -330 -327
-611 -210 -317 -238 -362 -300 -485 -131 -261 -155 -459 -83 -706 33 -114 79
-221 229 -533 181 -376 248 -559 292 -794 20 -107 23 -414 5 -458 -13 -32 -28
-34 208 18 202 44 228 52 226 67 0 6 3 46 7 87 16 158 -28 387 -118 611 -25
63 -117 260 -204 439 -220 451 -267 582 -278 780 -14 268 85 513 391 960 299
435 391 677 357 932 -25 188 -94 321 -320 611 -223 285 -298 417 -348 605 -22
84 -26 118 -27 257 -1 263 41 417 246 883 172 393 220 530 252 712 24 138 28
236 16 395 -30 409 -146 708 -411 1062 -32 43 -34 73 -4 73 34 0 264 -210 356
-325 55 -69 150 -217 191 -300 208 -412 242 -867 99 -1304 -21 -64 -88 -231
-149 -372 -180 -419 -217 -555 -216 -809 0 -139 3 -164 27 -243 52 -168 117
-276 333 -554 291 -373 360 -510 371 -741 7 -127 -5 -214 -45 -332 -55 -166
-113 -272 -322 -595 -210 -323 -254 -403 -308 -555 -76 -217 -67 -398 35 -653
20 -51 86 -186 145 -302 232 -448 308 -617 353 -786 31 -117 49 -266 42 -345
-4 -35 -4 -64 -2 -64 9 0 244 90 327 125 77 32 87 40 83 58 -2 12 -7 54 -10
92 -20 211 -107 425 -360 889 -171 313 -235 476 -257 652 -23 178 18 360 128
575 53 104 90 165 303 499 292 459 338 729 177 1049 -49 98 -109 185 -281 406
-82 105 -172 226 -200 270 -247 377 -248 669 -5 1316 180 480 221 697 191
1023 -37 399 -162 696 -454 1075 -83 108 -82 115 7 56 270 -179 525 -540 640
-905 58 -181 78 -316 78 -520 1 -297 -31 -444 -197 -915 -88 -251 -115 -367
-122 -530 -7 -164 8 -231 82 -380 54 -108 109 -188 367 -527 234 -309 317
-497 318 -719 0 -237 -80 -439 -345 -869 -167 -271 -243 -413 -287 -540 -30
-88 -32 -104 -32 -225 0 -127 1 -133 44 -260 31 -93 95 -230 222 -482 236
-466 302 -637 315 -815 3 -43 8 -78 11 -78 6 0 112 57 253 137 l96 54 -18 87
c-36 173 -95 301 -279 602 -143 235 -212 368 -250 486 -74 233 -56 415 67 642
24 45 45 82 47 82 2 0 -4 -28 -12 -62 -21 -89 -20 -265 3 -353 40 -157 123
-314 281 -531 284 -392 373 -551 407 -731 l12 -62 150 107 c194 139 299 223
288 231 -5 3 -31 40 -58 81 -27 41 -87 114 -134 161 l-86 85 74 97 74 97 29
-18 c66 -42 221 -209 279 -301 l28 -43 148 140 c81 77 161 154 177 170 l29 31
-86 103 c-130 158 -242 252 -329 273 -16 4 -28 10 -28 12 0 3 29 59 65 124 76
136 64 132 197 63 57 -30 100 -65 194 -159 66 -66 135 -139 151 -163 l31 -42
54 62 c30 35 101 121 157 192 l102 128 -27 15 c-16 7 -89 73 -163 146 -75 73
-163 149 -196 169 -75 45 -177 80 -223 76 -35 -3 -36 -5 -75 -98 -68 -166 -99
-190 -244 -190 -241 1 -585 139 -858 345 -104 78 -215 176 -215 190 0 6 29 66
64 135 178 347 245 587 217 780 -29 199 -112 349 -391 710 -294 381 -367 522
-377 732 -9 189 20 357 122 691 111 362 137 504 137 742 0 185 -18 316 -67
485 -75 261 -220 533 -432 815 -42 54 -36 53 52 -14 188 -142 403 -431 518
-696 123 -285 171 -559 148 -848 -15 -189 -43 -331 -120 -605 -72 -254 -90
-342 -98 -482 -11 -203 40 -304 369 -726 322 -413 405 -574 416 -811 l4 -112
62 -49 c250 -202 604 -342 869 -342 43 0 57 -4 57 -14 0 -8 -20 -86 -45 -172
-48 -168 -48 -174 6 -174 36 0 126 -28 184 -57 81 -41 152 -95 280 -208 150
-134 193 -164 206 -144 33 50 182 295 213 351 27 49 34 69 24 71 -120 31 -178
65 -318 186 -192 166 -295 217 -456 228 l-81 6 9 41 c5 22 20 97 32 166 l22
125 91 -1 c148 -3 287 -55 423 -158 30 -24 97 -75 149 -114 108 -83 200 -131
268 -138 l48 -6 67 159 c37 87 80 193 97 236 l29 77 -57 0 c-77 0 -193 31
-278 73 -38 20 -138 81 -223 138 -239 158 -384 218 -527 219 l-53 0 0 200 0
200 58 0 c181 0 333 -59 624 -242 88 -55 188 -113 222 -129 94 -44 211 -70
297 -67 l73 3 49 185 c27 102 55 208 62 236 l13 52 -152 5 c-221 6 -327 41
-587 193 -316 183 -466 244 -636 259 l-80 7 -18 97 c-10 53 -32 153 -50 224
l-32 127 89 0 c205 0 369 -58 705 -246 180 -102 323 -169 418 -196 68 -19 104
-23 242 -23 89 0 164 2 167 5 6 6 12 85 22 280 l7 135 -144 0 c-268 1 -418 48
-800 251 -341 182 -471 224 -712 233 l-149 6 -67 150 c-37 83 -90 194 -117
247 l-51 98 36 7 c20 5 119 8 221 7 165 -1 195 -4 280 -26 163 -44 260 -85
552 -232 393 -198 549 -246 792 -246 170 0 156 -13 156 151 0 158 -19 368 -56
609 -290 1900 -1490 3558 -3209 4434 -687 350 -1403 556 -2205 633 -147 14
-862 27 -873 16z m518 -741 c82 -189 153 -345 159 -347 6 -2 184 -16 396 -30
212 -15 386 -28 387 -29 1 -1 -130 -120 -293 -265 -162 -144 -294 -266 -292
-271 2 -4 61 -161 133 -348 l129 -339 96 84 c236 210 546 371 868 453 174 44
402 81 402 65 0 -2 -24 -42 -53 -87 -170 -263 -310 -546 -436 -881 l-11 -29
42 32 c217 163 493 291 754 349 91 20 324 54 330 48 2 -2 -40 -62 -93 -133
-216 -291 -355 -515 -513 -833 -57 -115 -88 -165 -105 -173 -20 -9 -41 -2
-142 45 -513 238 -1005 370 -1558 418 -192 16 -590 14 -790 -6 -519 -50 -986
-176 -1484 -402 -122 -55 -147 -63 -167 -54 -17 7 -47 58 -103 169 -149 298
-310 559 -515 836 -52 72 -94 131 -92 133 6 6 240 -28 330 -48 260 -58 537
-186 753 -349 l43 -31 -26 68 c-103 278 -261 593 -421 841 -29 45 -53 85 -53
89 0 10 120 -6 266 -36 203 -42 402 -111 584 -203 167 -84 281 -161 425 -286
l91 -79 130 340 c71 186 130 343 132 347 2 5 -130 127 -292 271 -163 145 -294
264 -293 265 1 1 175 14 387 29 212 14 390 28 396 30 6 1 82 168 169 370 144
334 160 365 170 343 7 -12 79 -178 160 -366z m-4774 -2228 c86 -63 231 -212
302 -311 113 -158 204 -356 252 -549 15 -60 29 -115 31 -122 2 -8 19 -3 52 18
136 83 339 162 517 200 138 30 393 38 530 16 96 -14 239 -51 307 -79 l32 -13
-100 -74 c-365 -274 -716 -629 -983 -993 -69 -94 -90 -117 -106 -114 -11 3
-47 12 -80 21 -244 65 -500 40 -804 -78 -47 -19 -187 -79 -310 -135 -353 -160
-488 -201 -669 -201 -101 0 -215 17 -210 31 2 4 51 61 109 126 511 567 806
1065 930 1568 42 173 59 321 59 522 0 150 2 179 17 195 26 28 56 22 124 -28z
m9333 30 c13 -13 16 -45 16 -194 0 -204 17 -351 59 -525 124 -503 413 -992
925 -1563 61 -68 112 -127 114 -132 5 -13 -116 -30 -212 -30 -159 0 -312 43
-576 162 -385 173 -533 229 -695 263 -172 35 -373 29 -536 -16 -39 -11 -74
-17 -79 -14 -4 3 -40 50 -80 105 -252 353 -642 751 -980 1000 -47 34 -86 66
-88 70 -4 12 163 64 273 86 137 28 424 26 570 -4 181 -36 406 -122 541 -206
l42 -26 22 98 c65 283 203 541 398 744 107 111 216 198 249 198 12 0 29 -7 37
-16z m-4476 -350 c402 -69 758 -332 877 -647 42 -113 36 -117 -90 -74 -87 30
-96 32 -260 32 -151 0 -179 -3 -245 -23 -161 -51 -297 -147 -319 -227 -55
-194 -49 -467 12 -640 11 -30 19 -39 33 -37 32 6 65 44 105 123 41 82 77 119
115 119 13 0 53 -11 90 -25 154 -58 284 -54 404 12 l65 35 41 -21 c102 -54
128 -231 73 -502 -65 -328 -263 -686 -510 -924 -218 -211 -420 -307 -644 -307
-224 0 -426 96 -644 307 -316 305 -532 770 -534 1155 -1 141 10 196 51 241 44
50 99 51 203 3 114 -51 195 -52 352 -5 129 40 161 38 244 -12 90 -54 100 -55
112 -10 36 127 38 318 5 462 -14 66 -20 74 -72 122 -182 163 -499 212 -775
122 -100 -33 -108 -27 -79 57 52 155 200 341 355 448 138 95 331 177 499 212
155 31 369 33 536 4z m-1016 -879 c161 -34 318 -150 318 -236 0 -16 -4 -20
-17 -14 -115 44 -301 69 -403 55 -75 -11 -161 -42 -181 -66 -17 -21 -24 -18
-54 25 -55 80 -52 160 8 203 66 47 201 61 329 33z m1799 -11 c109 -34 138
-144 63 -234 l-26 -30 -28 20 c-16 12 -51 31 -77 43 -69 31 -231 29 -363 -6
-52 -13 -98 -23 -102 -20 -5 2 -8 24 -8 47 0 38 5 48 40 79 70 64 166 104 278
116 83 9 163 4 223 -15z"/>
    <path d="M5690 9824 c-168 -129 -307 -239 -309 -245 -7 -23 22 -24 141 -7 68
10 205 22 306 26 212 11 492 0 670 -26 119 -17 148 -16 141 7 -6 16 -617 481
-632 480 -6 0 -149 -106 -317 -235z"/>
    <path d="M5820 6961 c-46 -14 -110 -51 -110 -64 0 -23 16 -37 61 -51 24 -8 76
-26 114 -40 85 -31 147 -33 223 -6 184 64 187 65 190 88 4 27 -40 56 -109 72
-39 10 -60 9 -117 -5 -64 -16 -74 -16 -131 -1 -68 17 -83 18 -121 7z"/>
    <path d="M5542 6554 c-6 -11 9 -34 62 -92 118 -128 168 -172 236 -205 60 -30
72 -32 165 -32 93 0 105 2 165 32 68 33 117 77 236 205 62 67 70 80 59 95 -11
15 -20 16 -92 5 -221 -34 -550 -35 -724 -2 -72 14 -97 12 -107 -6z"/>
    <path d="M9330 605 l0 -45 105 0 105 0 0 -280 0 -280 55 0 55 0 0 280 0 280
105 0 105 0 0 45 0 45 -265 0 -265 0 0 -45z"/>
    <path d="M9940 325 l0 -325 50 0 50 0 0 253 1 252 102 -253 102 -253 44 3 45
3 103 260 102 260 1 -262 0 -263 50 0 50 0 0 325 0 326 -77 -3 -78 -3 -94
-242 c-52 -134 -97 -243 -100 -243 -3 0 -49 110 -101 245 l-95 245 -77 0 -78
0 0 -325z"/>
  </g>
</svg>
