<svg width="20" height="15" viewBox="0 0 20 15" fill="none" xmlns="http://www.w3.org/2000/svg">
<path fill-rule="evenodd" clip-rule="evenodd" d="M0 1.2C0 0.537258 0.639412 0 1.42817 0H17.8521C18.6408 0 19.2803 0.537258 19.2803 1.2C19.2803 1.86274 18.6408 2.4 17.8521 2.4H1.42817C0.639412 2.4 0 1.86274 0 1.2ZM0 7.5C0 6.83726 0.639412 6.3 1.42817 6.3H11.1023C11.8911 6.3 12.5305 6.83726 12.5305 7.5C12.5305 8.16274 11.8911 8.7 11.1023 8.7H1.42817C0.639412 8.7 0 8.16274 0 7.5ZM0.357042 13.8C0.357042 13.1373 0.996454 12.6 1.78521 12.6H18.5718C19.3606 12.6 20 13.1373 20 13.8C20 14.4627 19.3606 15 18.5718 15H1.78521C0.996454 15 0.357042 14.4627 0.357042 13.8Z" fill="black"/>
</svg>
